<svg width="64" height="47" viewBox="0 0 64 47" fill="none" xmlns="http://www.w3.org/2000/svg">
<mask id="mask0_14337_37141" style="mask-type:alpha" maskUnits="userSpaceOnUse" x="0" y="0" width="64" height="47">
<rect width="64" height="47" fill="#D9D9D9"/>
</mask>
<g mask="url(#mask0_14337_37141)">
</g>
<g clip-path="url(#clip0_14337_37141)">
<path d="M41.685 15.6664H46.2782C47.2284 15.6664 48.0011 14.9183 48.0011 13.9993V12.3322C48.0011 10.4942 46.4557 8.99805 44.5552 8.99805C42.6547 8.99805 41.1094 10.4924 41.1094 12.3322V15.1101C41.1094 15.4177 41.3669 15.6664 41.683 15.6664H41.685Z" fill="url(#paint0_linear_14337_37141)"/>
<path d="M21.01 39H40.5339C41.4861 39 42.2569 38.2538 42.2569 37.3329V11.2215C42.2569 9.99684 43.2871 9 44.5535 9H21.5856C20.3174 9 19.2891 9.99494 19.2891 11.2215V37.3329C19.2891 38.2538 20.0598 39 21.012 39H21.01Z" fill="#39B402"/>
<path d="M40.3844 38.062C39.7366 38.062 39.1259 37.817 38.6654 37.3746C38.2049 36.9322 37.9512 36.3436 37.9512 35.7189V33.843C37.9512 33.0683 37.2976 32.436 36.4917 32.436H17.4595C16.6556 32.436 16 33.0664 16 33.843V35.7189C16 37.5284 17.5278 39 19.4049 39H40.3844C40.6537 39 40.8702 38.7911 40.8702 38.531C40.8702 38.2708 40.6537 38.062 40.3844 38.062Z" fill="#79D862"/>
<path d="M30.1514 12.02C31.9433 12.0201 33.3975 13.463 33.3975 15.2446C33.3974 17.0261 31.9433 18.4682 30.1514 18.4683C28.3594 18.4683 26.9044 17.0262 26.9043 15.2446C26.9043 13.463 28.3594 12.02 30.1514 12.02Z" fill="white" stroke="white" stroke-width="0.3"/>
<path d="M36.0244 21.1406C36.4664 21.1407 36.8123 21.5151 36.8125 21.9609V21.9707C36.8125 22.4167 36.4665 22.791 36.0244 22.791H24.7002C24.2583 22.7908 23.9121 22.4165 23.9121 21.9707V21.9609C23.9123 21.5152 24.2584 21.1409 24.7002 21.1406H36.0244Z" fill="white" stroke="white" stroke-width="0.3"/>
<path d="M30.4883 25.2637C30.9473 25.2639 31.326 25.6274 31.3262 26.084V26.0938C31.3262 26.5505 30.9475 26.9138 30.4883 26.9141H24.751C24.2917 26.9139 23.9121 26.5505 23.9121 26.0938V26.084C23.9123 25.6274 24.2919 25.2638 24.751 25.2637H30.4883Z" fill="white" stroke="white" stroke-width="0.3"/>
</g>
<defs>
<linearGradient id="paint0_linear_14337_37141" x1="44.5552" y1="8.99805" x2="44.5552" y2="15.6664" gradientUnits="userSpaceOnUse">
<stop stop-color="#79D862"/>
<stop offset="1" stop-color="#59C13F"/>
</linearGradient>
<clipPath id="clip0_14337_37141">
<rect width="32" height="30" fill="white" transform="translate(16 9)"/>
</clipPath>
</defs>
</svg>
